<svg xmlns="http://www.w3.org/2000/svg" xmlns:xlink="http://www.w3.org/1999/xlink" aria-hidden="true" role="img" class="iconify iconify--logos" width="31.88" height="32" preserveAspectRatio="xMidYMid meet" viewBox="0 0 256 257"><path fill="url(#IconifyId1813088fe1f29001d76)" d="M255.153 37.938L207.951 1.732C202.634.346 197.199.653 192.162 2.573L128 29.88 63.838 2.573C58.801.653 53.366.346 48.049 1.732L.847 37.938C.299 38.222 0 38.799 0 39.418v177.164c0 .619.299 1.196.847 1.48L48.049 254.268c5.537 1.402 11.076 1.402 16.614 0L128 226.12l63.838 28.148c5.537 1.402 11.076 1.402 16.614 0L255.153 254.268c.548.284.847.861.847 1.48V39.418c0-.619-.299-1.196-.847-1.48zM128 17.68L200.947 52.5 128 87.32 55.053 52.5 128 17.68zM16 48.5L128 89.32v140.64L16 189.16V48.5zM240 189.16L128 230v-140.64L240 48.5v140.66z"></path><defs><linearGradient id="IconifyId1813088fe1f29001d76" x1="-.828%" x2="57.636%" y1="7.652%" y2="78.411%"><stop offset="0%" stop-color="#41D1FF"></stop><stop offset="100%" stop-color="#BD34FE"></stop></linearGradient></defs></svg>
